<?xml version="1.0" encoding="UTF-8" standalone="no"?>
<svg
   xmlns:dc="http://purl.org/dc/elements/1.1/"
   xmlns:cc="http://creativecommons.org/ns#"
   xmlns:rdf="http://www.w3.org/1999/02/22-rdf-syntax-ns#"
   xmlns:svg="http://www.w3.org/2000/svg"
   xmlns="http://www.w3.org/2000/svg"
   xmlns:sodipodi="http://sodipodi.sourceforge.net/DTD/sodipodi-0.dtd"
   xmlns:inkscape="http://www.inkscape.org/namespaces/inkscape"
   width="210mm"
   height="297mm"
   viewBox="0 0 210 297"
   version="1.1"
   id="svg8"
   inkscape:version="1.0.1 (c497b03c, 2020-09-10)"
   sodipodi:docname="x_player.svg"
   inkscape:export-filename="/Users/Shahmil/Documents/GitHub/Games/tictactoe/TicTacToe/x_player.png"
   inkscape:export-xdpi="96"
   inkscape:export-ydpi="96">
  <defs
     id="defs2">
    <inkscape:perspective
       sodipodi:type="inkscape:persp3d"
       inkscape:vp_x="0 : 148.5 : 1"
       inkscape:vp_y="0 : 1000 : 0"
       inkscape:vp_z="210 : 148.5 : 1"
       inkscape:persp3d-origin="105 : 99 : 1"
       id="perspective130" />
  </defs>
  <sodipodi:namedview
     id="base"
     pagecolor="#ffffff"
     bordercolor="#666666"
     borderopacity="1.0"
     inkscape:pageopacity="0.0"
     inkscape:pageshadow="2"
     inkscape:zoom="0.73"
     inkscape:cx="160.9589"
     inkscape:cy="560"
     inkscape:document-units="mm"
     inkscape:current-layer="layer1"
     inkscape:document-rotation="0"
     showgrid="false"
     inkscape:window-width="1920"
     inkscape:window-height="1054"
     inkscape:window-x="0"
     inkscape:window-y="26"
     inkscape:window-maximized="0" />
  <metadata
     id="metadata5">
    <rdf:RDF>
      <cc:Work
         rdf:about="">
        <dc:format>image/svg+xml</dc:format>
        <dc:type
           rdf:resource="http://purl.org/dc/dcmitype/StillImage" />
        <dc:title />
      </cc:Work>
    </rdf:RDF>
  </metadata>
  <g
     inkscape:label="Layer 1"
     inkscape:groupmode="layer"
     id="layer1">
    <path
       style="fill:none;stroke:#000000;stroke-width:0.264583px;stroke-linecap:butt;stroke-linejoin:miter;stroke-opacity:1"
       d="M 30.008,74.839284 84,141.30096 37.797618,202.59524 78.619047,201.83928 100.241,157.61089 127,201.83928 162.52976,202.595 115,141.301 170.008,75.502039 130,75.502038 100.24136,123.77944 70,74.839284 Z"
       id="path146"
       sodipodi:nodetypes="ccccccccccccc" />
    <path
       style="fill:#ff0000;stroke:none;stroke-width:1.36986"
       d="M 155.7616,750.89323 C 264.18064,607.20152 317.31647,536.43297 317.8701,534.99025 318.24807,534.00529 274.04667,478.39796 219.03027,410.64533 164.29231,343.2356 118.89496,287.31164 118.14727,286.36986 c -1.08419,-1.36562 13.58294,-1.7022 72.43842,-1.66232 l 73.79787,0.05 56.84932,92.36575 c 31.26712,50.80116 57.15753,92.38238 57.53424,92.40272 0.37672,0.0203 26.02356,-41.10442 56.99302,-91.38835 l 56.30807,-91.42533 73.48645,-0.35437 c 40.41753,-0.1949 73.48644,-0.0252 73.48644,0.37699 0,0.40225 -46.23881,56.04116 -102.75292,123.64204 -56.51411,67.60087 -102.49139,123.59452 -102.17174,124.43031 0.31966,0.8358 40.08586,52.45737 88.36935,114.7146 48.28351,62.25725 87.78818,113.58433 87.78818,114.06021 0,0.93629 -87.82515,-0.36493 -113.88439,-1.68732 l -15.9392,-0.80884 -50.42163,-83.41969 c -27.73189,-45.88082 -50.76887,-83.41968 -51.1933,-83.41968 -0.42442,0 -19.05324,37.44863 -41.3974,83.21917 l -40.62571,83.21918 -11.41987,0.86082 c -6.28092,0.47346 -40.30853,1.30692 -75.6169,1.85214 l -64.19702,0.99132 z"
       id="path148"
       transform="scale(0.26458333)" />
    <path
       style="fill:#ff0000;stroke-width:1.36986"
       d="m 148.81545,761.7071 c 1.02821,-1.4462 39.71086,-52.94905 85.96143,-114.4508 l 84.09196,-111.82135 -2.49094,-3.81337 c -5.54902,-8.49499 -55.44537,-70.78257 -147.90468,-184.63528 -25.69783,-31.64383 -47.18425,-58.30479 -47.74761,-59.24657 -0.8143,-1.3613 13.80594,-1.70753 71.31683,-1.68891 l 72.34112,0.0234 30.03699,48.94918 c 53.58266,87.31991 83.21689,134.56562 84.40445,134.56562 1.21315,0 16.32766,-24.04367 77.07144,-122.60274 l 36.3037,-58.90411 72.05061,-0.35457 c 39.62784,-0.19502 72.05062,-1.3e-4 72.05062,0.43309 0,0.43322 -37.79184,46.20922 -83.98186,101.72444 -87.58233,105.26411 -118.75787,143.26381 -118.75787,144.75334 0,1.01855 12.91025,17.8795 98.61015,128.78617 76.56442,99.08416 75.36246,97.50927 75.36246,98.74512 0,1.13433 -117.90728,-0.41038 -123.37261,-1.61631 -2.90491,-0.64098 -9.15946,-10.11599 -36.30137,-54.99294 -51.02059,-84.35838 -67.20195,-110.45524 -68.82279,-110.99553 -0.82341,-0.27447 -7.63548,12.02448 -15.13795,27.331 -7.50246,15.30652 -25.73556,52.48756 -40.51801,82.62455 l -26.87718,54.79452 -5.10148,0.89193 c -2.80582,0.49056 -26.67683,1.26755 -53.0467,1.72662 -26.36986,0.45906 -57.72482,1.18753 -69.6777,1.61879 -21.23852,0.7663 -21.69,0.72436 -19.86301,-1.84531 z"
       id="path150"
       transform="scale(0.26458333)" />
    <path
       style="fill:#ff0000;stroke-width:1.36986"
       d=""
       id="path152"
       transform="scale(0.26458333)" />
    <path
       style="fill:#ff0000;stroke-width:1.36986"
       d="m 152.39726,283.63107 c 20.53082,-0.21309 54.12671,-0.21309 74.65753,0 20.53083,0.21309 3.73288,0.38743 -37.32876,0.38743 -41.06165,0 -57.85959,-0.17434 -37.32877,-0.38743 z"
       id="path154"
       transform="scale(0.26458333)" />
    <path
       style="fill:#ff0000;stroke-width:1.36986"
       d=""
       id="path156"
       transform="scale(0.26458333)" />
    <path
       style="fill:#ff0000;stroke-width:1.36986"
       d="m 148.81545,761.6834 c 1.02821,-1.45924 39.7181,-52.97145 85.97752,-114.47161 l 84.10803,-111.81846 -3.97104,-5.73165 c -5.27941,-7.62008 -74.86122,-94.43987 -140.36703,-175.14113 -29.04911,-35.78767 -53.2767,-65.83904 -53.83909,-66.78082 -0.81284,-1.36121 13.8115,-1.7103 71.3186,-1.7024 l 72.34112,0.01 33.45991,54.44213 c 54.93641,89.38625 79.84243,129.09966 80.96405,129.09966 1.05885,0 24.51352,-37.35592 82.56922,-131.50685 l 30.83119,-50 72.04673,-0.35457 c 39.62568,-0.19502 72.04671,-0.006 72.04671,0.42073 0,0.42642 -5.73966,7.67503 -12.75481,16.108 -153.97518,185.09525 -183.91653,221.34369 -188.08222,227.70133 -2.41545,3.68646 -9.92215,-6.52312 94.48565,128.50661 71.79431,92.851 77.58426,100.44278 77.58426,101.72866 0,1.12057 -117.98092,-0.45007 -123.3891,-1.64263 -2.91231,-0.64221 -8.37963,-8.80532 -31.40953,-46.89681 -46.86152,-77.50902 -72.73792,-119.40693 -73.74641,-119.40693 -1.14922,0 -9.82702,17.18953 -51.17457,101.36986 l -31.28738,63.69863 -5.11294,0.89193 c -2.81213,0.49056 -26.68829,1.26755 -53.05816,1.72662 -26.36986,0.45906 -57.72482,1.18753 -69.6777,1.61879 -21.30109,0.76855 -21.69538,0.73145 -19.86301,-1.86901 z"
       id="path158"
       transform="scale(0.26458333)" />
  </g>
</svg>
